<?xml version="1.0" encoding="UTF-8" standalone="no"?><!DOCTYPE svg PUBLIC "-//W3C//DTD SVG 1.1//EN" "http://www.w3.org/Graphics/SVG/1.1/DTD/svg11.dtd"><svg width="100%" height="100%" viewBox="0 0 3409 594" version="1.1" xmlns="http://www.w3.org/2000/svg" xmlns:xlink="http://www.w3.org/1999/xlink" xml:space="preserve" xmlns:serif="http://www.serif.com/" style="fill-rule:evenodd;clip-rule:evenodd;stroke-linejoin:round;stroke-miterlimit:2;"><g><path d="M748.324,413.663l0,-325.222l133.216,-0c24.435,-0 45.5,4.731 63.196,14.194c17.698,9.461 31.341,22.64 40.929,39.538c9.59,16.895 14.385,36.457 14.385,58.687c0,22.338 -4.878,41.836 -14.634,58.493c-9.754,16.654 -23.664,29.61 -41.73,38.869c-18.067,9.256 -39.539,13.884 -64.417,13.884l-82.612,-0l0,-60.836l68.537,-0c12.084,-0 22.203,-2.117 30.356,-6.35c8.156,-4.236 14.294,-10.128 18.414,-17.677c4.122,-7.548 6.183,-16.343 6.183,-26.383c-0,-10.263 -2.061,-19.124 -6.183,-26.581c-4.12,-7.46 -10.267,-13.215 -18.441,-17.264c-8.171,-4.052 -18.315,-6.078 -30.431,-6.078l-39.797,0l-0,262.726l-76.971,-0Z" style="fill:url(#_Linear1);fill-rule:nonzero;stroke:url(#_Linear2);stroke-width:23.13px;"/><path d="M1111.2,274.389l0,139.274l-76.118,-0l0,-325.222l74.457,-0l0,142.837l-4.774,-0c5.982,-19.458 15.35,-35.105 28.105,-46.942c12.758,-11.836 29.869,-17.755 51.335,-17.755c17.107,0 31.991,3.798 44.653,11.395c12.664,7.596 22.479,18.28 29.446,32.051c6.966,13.772 10.45,29.883 10.45,48.333l-0,155.303l-76.17,-0l0,-140.583c0,-13.683 -3.501,-24.426 -10.504,-32.229c-7.001,-7.803 -16.745,-11.705 -29.234,-11.705c-8.215,0 -15.458,1.801 -21.729,5.402c-6.27,3.6 -11.157,8.754 -14.661,15.463c-3.504,6.708 -5.256,14.834 -5.256,24.378Z" style="fill:url(#_Linear3);fill-rule:nonzero;stroke:url(#_Linear4);stroke-width:23.13px;"/><path d="M1314.59,504.899l-0,-335.262l75.139,-0l0,41.891l2.705,-0c3.096,-7.351 7.561,-14.475 13.393,-21.374c5.834,-6.898 13.324,-12.551 22.471,-16.96c9.147,-4.408 20.213,-6.613 33.198,-6.613c17.163,0 33.106,4.485 47.828,13.454c14.724,8.97 26.627,22.711 35.708,41.223c9.081,18.512 13.621,42.084 13.621,70.716c0,27.559 -4.365,50.63 -13.096,69.215c-8.731,18.585 -20.486,32.574 -35.264,41.966c-14.779,9.392 -31.248,14.089 -49.408,14.089c-12.327,-0 -23.027,-2.075 -32.099,-6.225c-9.072,-4.151 -16.597,-9.499 -22.574,-16.042c-5.977,-6.546 -10.57,-13.513 -13.778,-20.9l-1.726,0l0,130.822l-76.118,0Zm120.328,-147.185c9.861,-0 18.15,-2.728 24.869,-8.185c6.721,-5.457 11.834,-13.142 15.34,-23.055c3.506,-9.915 5.259,-21.451 5.259,-34.606c0,-13.23 -1.745,-24.768 -5.235,-34.613c-3.488,-9.845 -8.592,-17.497 -15.313,-22.956c-6.718,-5.461 -15.025,-8.192 -24.92,-8.192c-9.679,0 -17.953,2.679 -24.821,8.036c-6.869,5.354 -12.112,12.937 -15.729,22.747c-3.618,9.809 -5.427,21.468 -5.427,34.978c0,13.287 1.818,24.852 5.454,34.695c3.635,9.842 8.895,17.495 15.78,22.959c6.887,5.461 15.135,8.192 24.743,8.192Z" style="fill:url(#_Linear5);fill-rule:nonzero;stroke:url(#_Linear6);stroke-width:23.13px;"/><path d="M1549.48,151.319l0,-62.878l273.642,-0l0,62.878l-98.282,0l-0,262.344l-76.971,-0l-0,-262.344l-98.389,0Z" style="fill:url(#_Linear7);fill-rule:nonzero;stroke:url(#_Linear8);stroke-width:23.13px;"/><path d="M1934.42,274.389l-0,139.274l-76.118,-0l-0,-325.222l74.457,-0l-0,142.837l-4.775,-0c5.982,-19.458 15.351,-35.105 28.106,-46.942c12.757,-11.836 29.869,-17.755 51.334,-17.755c17.107,0 31.991,3.798 44.653,11.395c12.665,7.596 22.48,18.28 29.446,32.051c6.967,13.772 10.45,29.883 10.45,48.333l0,155.303l-76.169,-0l-0,-140.583c-0,-13.683 -3.502,-24.426 -10.505,-32.229c-7,-7.803 -16.745,-11.705 -29.234,-11.705c-8.215,0 -15.457,1.801 -21.728,5.402c-6.271,3.6 -11.158,8.754 -14.662,15.463c-3.503,6.708 -5.255,14.834 -5.255,24.378Z" style="fill:url(#_Linear9);fill-rule:nonzero;stroke:url(#_Linear10);stroke-width:23.13px;"/><path d="M2222.35,416.718c-16.995,0 -31.852,-3.798 -44.571,-11.394c-12.717,-7.596 -22.559,-18.288 -29.528,-32.075c-6.966,-13.79 -10.45,-29.893 -10.45,-48.31l0,-155.302l76.119,-0l-0,140.583c-0,13.683 3.509,24.426 10.528,32.229c7.018,7.803 16.773,11.704 29.265,11.704c8.324,0 15.585,-1.799 21.783,-5.398c6.197,-3.602 11.048,-8.793 14.552,-15.573c3.504,-6.782 5.255,-14.873 5.255,-24.272l0,-139.273l76.17,-0l-0,244.026l-71.654,-0l-1.327,-61.641l3.247,-0c-6.018,19.528 -15.423,35.194 -28.215,46.996c-12.789,11.8 -29.847,17.7 -51.174,17.7Z" style="fill:url(#_Linear11);fill-rule:nonzero;stroke:url(#_Linear12);stroke-width:23.13px;"/><path d="M2493.42,274.389l0,139.274l-76.118,-0l0,-244.026l71.603,-0l1.378,61.641l-3.298,-0c5.982,-19.458 15.35,-35.105 28.105,-46.942c12.758,-11.836 29.869,-17.755 51.335,-17.755c17.107,0 31.982,3.798 44.626,11.395c12.646,7.596 22.452,18.28 29.418,32.051c6.969,13.772 10.453,29.883 10.453,48.333l0,155.303l-76.118,-0l0,-140.583c0,-13.683 -3.501,-24.426 -10.504,-32.229c-7.001,-7.803 -16.745,-11.705 -29.234,-11.705c-8.215,0 -15.458,1.801 -21.729,5.402c-6.27,3.6 -11.157,8.754 -14.661,15.463c-3.504,6.708 -5.256,14.834 -5.256,24.378Z" style="fill:url(#_Linear13);fill-rule:nonzero;stroke:url(#_Linear14);stroke-width:23.13px;"/><path d="M2785.11,417.244c-18.014,-0 -34.447,-4.697 -49.299,-14.089c-14.851,-9.392 -26.642,-23.381 -35.373,-41.966c-8.731,-18.585 -13.096,-41.656 -13.096,-69.215c-0,-28.632 4.539,-52.204 13.618,-70.716c9.081,-18.512 21.019,-32.253 35.813,-41.223c14.797,-8.969 30.706,-13.454 47.726,-13.454c12.985,0 24.051,2.205 33.198,6.613c9.147,4.409 16.672,10.062 22.577,16.96c5.905,6.899 10.333,14.023 13.284,21.374l1.729,-0l-0,-123.087l76.118,-0l0,325.222l-75.139,-0l-0,-39.586l-2.708,0c-3.172,7.387 -7.756,14.354 -13.751,20.9c-5.996,6.543 -13.493,11.891 -22.492,16.042c-8.997,4.15 -19.732,6.225 -32.205,6.225Zm25.967,-59.53c9.643,-0 17.898,-2.731 24.767,-8.192c6.868,-5.464 12.119,-13.117 15.753,-22.959c3.635,-9.843 5.453,-21.408 5.453,-34.695c0,-13.51 -1.809,-25.169 -5.426,-34.978c-3.617,-9.81 -8.86,-17.393 -15.729,-22.747c-6.866,-5.357 -15.139,-8.036 -24.818,-8.036c-9.786,0 -18.066,2.731 -24.842,8.192c-6.773,5.459 -11.905,13.111 -15.395,22.956c-3.49,9.845 -5.235,21.383 -5.235,34.613c0,13.155 1.753,24.691 5.259,34.606c3.508,9.913 8.658,17.598 15.45,23.055c6.793,5.457 15.048,8.185 24.763,8.185Z" style="fill:url(#_Linear15);fill-rule:nonzero;stroke:url(#_Linear16);stroke-width:23.13px;"/><path d="M3090.93,418.236c-25.451,0 -47.389,-5.044 -65.815,-15.132c-18.425,-10.091 -32.563,-24.521 -42.412,-43.293c-9.847,-18.771 -14.771,-41.169 -14.771,-67.193c0,-25.137 4.926,-47.154 14.778,-66.05c9.851,-18.899 23.781,-33.62 41.788,-44.166c18.01,-10.547 39.234,-15.821 63.673,-15.821c17.155,0 32.91,2.7 47.266,8.1c14.356,5.398 26.802,13.36 37.338,23.887c10.536,10.525 18.694,23.517 24.473,38.978c5.78,15.459 8.67,33.304 8.67,53.538l-0,19.19l-211.026,0l-0,-44.458l174.755,-0l-35.584,10.562c-0,-11.362 -1.709,-21.107 -5.126,-29.235c-3.418,-8.128 -8.471,-14.393 -15.16,-18.795c-6.687,-4.404 -15,-6.606 -24.941,-6.606c-9.94,0 -18.324,2.219 -25.152,6.657c-6.827,4.438 -12.011,10.617 -15.551,18.536c-3.538,7.919 -5.307,17.228 -5.307,27.925l-0,31.833c-0,12.514 2.05,22.964 6.149,31.349c4.102,8.383 9.883,14.652 17.346,18.806c7.462,4.151 16.125,6.227 25.991,6.227c6.839,0 13.054,-0.967 18.645,-2.902c5.591,-1.935 10.394,-4.763 14.409,-8.485c4.015,-3.722 7.054,-8.294 9.116,-13.714l67.838,11.142c-4.004,13.992 -11.015,26.17 -21.033,36.533c-10.017,10.363 -22.624,18.386 -37.818,24.068c-15.195,5.679 -32.708,8.519 -52.539,8.519Z" style="fill:url(#_Linear17);fill-rule:nonzero;stroke:url(#_Linear18);stroke-width:23.13px;"/><path d="M3241.39,413.663l-0,-244.026l73.812,-0l0,44.51l2.62,-0c4.399,-16.129 11.663,-28.107 21.793,-35.933c10.131,-7.826 21.864,-11.739 35.199,-11.739c3.574,0 7.279,0.239 11.115,0.717c3.835,0.477 7.359,1.176 10.572,2.097l0,66.214c-3.597,-1.287 -8.36,-2.248 -14.29,-2.885c-5.927,-0.637 -11.233,-0.955 -15.916,-0.955c-9.32,0 -17.688,2.051 -25.105,6.153c-7.414,4.099 -13.215,9.797 -17.403,17.093c-4.186,7.294 -6.279,15.807 -6.279,25.541l-0,133.213l-76.118,-0Z" style="fill:url(#_Linear19);fill-rule:nonzero;stroke:url(#_Linear20);stroke-width:23.13px;"/><path d="M748.324,413.663l0,-325.222l133.216,-0c24.435,-0 45.5,4.731 63.196,14.194c17.698,9.461 31.341,22.64 40.929,39.538c9.59,16.895 14.385,36.457 14.385,58.687c0,22.338 -4.878,41.836 -14.634,58.493c-9.754,16.654 -23.664,29.61 -41.73,38.869c-18.067,9.256 -39.539,13.884 -64.417,13.884l-82.612,-0l0,-60.836l68.537,-0c12.084,-0 22.203,-2.117 30.356,-6.35c8.156,-4.236 14.294,-10.128 18.414,-17.677c4.122,-7.548 6.183,-16.343 6.183,-26.383c-0,-10.263 -2.061,-19.124 -6.183,-26.581c-4.12,-7.46 -10.267,-13.215 -18.441,-17.264c-8.171,-4.052 -18.315,-6.078 -30.431,-6.078l-39.797,0l-0,262.726l-76.971,-0Z" style="fill:url(#_Linear21);fill-rule:nonzero;"/><path d="M1111.2,274.389l0,139.274l-76.118,-0l0,-325.222l74.457,-0l0,142.837l-4.774,-0c5.982,-19.458 15.35,-35.105 28.105,-46.942c12.758,-11.836 29.869,-17.755 51.335,-17.755c17.107,0 31.991,3.798 44.653,11.395c12.664,7.596 22.479,18.28 29.446,32.051c6.966,13.772 10.45,29.883 10.45,48.333l-0,155.303l-76.17,-0l0,-140.583c0,-13.683 -3.501,-24.426 -10.504,-32.229c-7.001,-7.803 -16.745,-11.705 -29.234,-11.705c-8.215,0 -15.458,1.801 -21.729,5.402c-6.27,3.6 -11.157,8.754 -14.661,15.463c-3.504,6.708 -5.256,14.834 -5.256,24.378Z" style="fill:url(#_Linear22);fill-rule:nonzero;"/><path d="M1314.59,504.899l-0,-335.262l75.139,-0l0,41.891l2.705,-0c3.096,-7.351 7.561,-14.475 13.393,-21.374c5.834,-6.898 13.324,-12.551 22.471,-16.96c9.147,-4.408 20.213,-6.613 33.198,-6.613c17.163,0 33.106,4.485 47.828,13.454c14.724,8.97 26.627,22.711 35.708,41.223c9.081,18.512 13.621,42.084 13.621,70.716c0,27.559 -4.365,50.63 -13.096,69.215c-8.731,18.585 -20.486,32.574 -35.264,41.966c-14.779,9.392 -31.248,14.089 -49.408,14.089c-12.327,-0 -23.027,-2.075 -32.099,-6.225c-9.072,-4.151 -16.597,-9.499 -22.574,-16.042c-5.977,-6.546 -10.57,-13.513 -13.778,-20.9l-1.726,0l0,130.822l-76.118,0Zm120.328,-147.185c9.861,-0 18.15,-2.728 24.869,-8.185c6.721,-5.457 11.834,-13.142 15.34,-23.055c3.506,-9.915 5.259,-21.451 5.259,-34.606c0,-13.23 -1.745,-24.768 -5.235,-34.613c-3.488,-9.845 -8.592,-17.497 -15.313,-22.956c-6.718,-5.461 -15.025,-8.192 -24.92,-8.192c-9.679,0 -17.953,2.679 -24.821,8.036c-6.869,5.354 -12.112,12.937 -15.729,22.747c-3.618,9.809 -5.427,21.468 -5.427,34.978c0,13.287 1.818,24.852 5.454,34.695c3.635,9.842 8.895,17.495 15.78,22.959c6.887,5.461 15.135,8.192 24.743,8.192Z" style="fill:url(#_Linear23);fill-rule:nonzero;"/><path d="M1549.48,151.319l0,-62.878l273.642,-0l0,62.878l-98.282,0l-0,262.344l-76.971,-0l-0,-262.344l-98.389,0Z" style="fill:url(#_Linear24);fill-rule:nonzero;"/><path d="M1934.42,274.389l-0,139.274l-76.118,-0l-0,-325.222l74.457,-0l-0,142.837l-4.775,-0c5.982,-19.458 15.351,-35.105 28.106,-46.942c12.757,-11.836 29.869,-17.755 51.334,-17.755c17.107,0 31.991,3.798 44.653,11.395c12.665,7.596 22.48,18.28 29.446,32.051c6.967,13.772 10.45,29.883 10.45,48.333l0,155.303l-76.169,-0l-0,-140.583c-0,-13.683 -3.502,-24.426 -10.505,-32.229c-7,-7.803 -16.745,-11.705 -29.234,-11.705c-8.215,0 -15.457,1.801 -21.728,5.402c-6.271,3.6 -11.158,8.754 -14.662,15.463c-3.503,6.708 -5.255,14.834 -5.255,24.378Z" style="fill:url(#_Linear25);fill-rule:nonzero;"/><path d="M2222.35,416.718c-16.995,0 -31.852,-3.798 -44.571,-11.394c-12.717,-7.596 -22.559,-18.288 -29.528,-32.075c-6.966,-13.79 -10.45,-29.893 -10.45,-48.31l0,-155.302l76.119,-0l-0,140.583c-0,13.683 3.509,24.426 10.528,32.229c7.018,7.803 16.773,11.704 29.265,11.704c8.324,0 15.585,-1.799 21.783,-5.398c6.197,-3.602 11.048,-8.793 14.552,-15.573c3.504,-6.782 5.255,-14.873 5.255,-24.272l0,-139.273l76.17,-0l-0,244.026l-71.654,-0l-1.327,-61.641l3.247,-0c-6.018,19.528 -15.423,35.194 -28.215,46.996c-12.789,11.8 -29.847,17.7 -51.174,17.7Z" style="fill:url(#_Linear26);fill-rule:nonzero;"/><path d="M2493.42,274.389l0,139.274l-76.118,-0l0,-244.026l71.603,-0l1.378,61.641l-3.298,-0c5.982,-19.458 15.35,-35.105 28.105,-46.942c12.758,-11.836 29.869,-17.755 51.335,-17.755c17.107,0 31.982,3.798 44.626,11.395c12.646,7.596 22.452,18.28 29.418,32.051c6.969,13.772 10.453,29.883 10.453,48.333l0,155.303l-76.118,-0l0,-140.583c0,-13.683 -3.501,-24.426 -10.504,-32.229c-7.001,-7.803 -16.745,-11.705 -29.234,-11.705c-8.215,0 -15.458,1.801 -21.729,5.402c-6.27,3.6 -11.157,8.754 -14.661,15.463c-3.504,6.708 -5.256,14.834 -5.256,24.378Z" style="fill:url(#_Linear27);fill-rule:nonzero;"/><path d="M2785.11,417.244c-18.014,-0 -34.447,-4.697 -49.299,-14.089c-14.851,-9.392 -26.642,-23.381 -35.373,-41.966c-8.731,-18.585 -13.096,-41.656 -13.096,-69.215c-0,-28.632 4.539,-52.204 13.618,-70.716c9.081,-18.512 21.019,-32.253 35.813,-41.223c14.797,-8.969 30.706,-13.454 47.726,-13.454c12.985,0 24.051,2.205 33.198,6.613c9.147,4.409 16.672,10.062 22.577,16.96c5.905,6.899 10.333,14.023 13.284,21.374l1.729,-0l-0,-123.087l76.118,-0l0,325.222l-75.139,-0l-0,-39.586l-2.708,0c-3.172,7.387 -7.756,14.354 -13.751,20.9c-5.996,6.543 -13.493,11.891 -22.492,16.042c-8.997,4.15 -19.732,6.225 -32.205,6.225Zm25.967,-59.53c9.643,-0 17.898,-2.731 24.767,-8.192c6.868,-5.464 12.119,-13.117 15.753,-22.959c3.635,-9.843 5.453,-21.408 5.453,-34.695c0,-13.51 -1.809,-25.169 -5.426,-34.978c-3.617,-9.81 -8.86,-17.393 -15.729,-22.747c-6.866,-5.357 -15.139,-8.036 -24.818,-8.036c-9.786,0 -18.066,2.731 -24.842,8.192c-6.773,5.459 -11.905,13.111 -15.395,22.956c-3.49,9.845 -5.235,21.383 -5.235,34.613c0,13.155 1.753,24.691 5.259,34.606c3.508,9.913 8.658,17.598 15.45,23.055c6.793,5.457 15.048,8.185 24.763,8.185Z" style="fill:url(#_Linear28);fill-rule:nonzero;"/><path d="M3090.93,418.236c-25.451,0 -47.389,-5.044 -65.815,-15.132c-18.425,-10.091 -32.563,-24.521 -42.412,-43.293c-9.847,-18.771 -14.771,-41.169 -14.771,-67.193c0,-25.137 4.926,-47.154 14.778,-66.05c9.851,-18.899 23.781,-33.62 41.788,-44.166c18.01,-10.547 39.234,-15.821 63.673,-15.821c17.155,0 32.91,2.7 47.266,8.1c14.356,5.398 26.802,13.36 37.338,23.887c10.536,10.525 18.694,23.517 24.473,38.978c5.78,15.459 8.67,33.304 8.67,53.538l-0,19.19l-211.026,0l-0,-44.458l174.755,-0l-35.584,10.562c-0,-11.362 -1.709,-21.107 -5.126,-29.235c-3.418,-8.128 -8.471,-14.393 -15.16,-18.795c-6.687,-4.404 -15,-6.606 -24.941,-6.606c-9.94,0 -18.324,2.219 -25.152,6.657c-6.827,4.438 -12.011,10.617 -15.551,18.536c-3.538,7.919 -5.307,17.228 -5.307,27.925l-0,31.833c-0,12.514 2.05,22.964 6.149,31.349c4.102,8.383 9.883,14.652 17.346,18.806c7.462,4.151 16.125,6.227 25.991,6.227c6.839,0 13.054,-0.967 18.645,-2.902c5.591,-1.935 10.394,-4.763 14.409,-8.485c4.015,-3.722 7.054,-8.294 9.116,-13.714l67.838,11.142c-4.004,13.992 -11.015,26.17 -21.033,36.533c-10.017,10.363 -22.624,18.386 -37.818,24.068c-15.195,5.679 -32.708,8.519 -52.539,8.519Z" style="fill:url(#_Linear29);fill-rule:nonzero;"/><path d="M3241.39,413.663l-0,-244.026l73.812,-0l0,44.51l2.62,-0c4.399,-16.129 11.663,-28.107 21.793,-35.933c10.131,-7.826 21.864,-11.739 35.199,-11.739c3.574,0 7.279,0.239 11.115,0.717c3.835,0.477 7.359,1.176 10.572,2.097l0,66.214c-3.597,-1.287 -8.36,-2.248 -14.29,-2.885c-5.927,-0.637 -11.233,-0.955 -15.916,-0.955c-9.32,0 -17.688,2.051 -25.105,6.153c-7.414,4.099 -13.215,9.797 -17.403,17.093c-4.186,7.294 -6.279,15.807 -6.279,25.541l-0,133.213l-76.118,-0Z" style="fill:url(#_Linear30);fill-rule:nonzero;"/><g id="Image"><path id="path1" d="M399.302,556.935c-0,-1.138 3.372,-5.852 26.358,-36.847c19.204,-25.894 20.852,-27.734 26.071,-29.117c59.098,-15.665 84.78,-24.009 122.704,-39.867c16.312,-6.821 51.166,-24.208 60.533,-30.199c3.85,-2.462 -14.304,20.514 -28.03,31.869c-48.874,40.43 -106.117,70.389 -189.322,99.086c-18.095,6.24 -18.314,6.301 -18.314,5.075Z" style="fill:url(#_Linear31);fill-rule:nonzero;"/><path id="path11" serif:id="path1" d="M277.968,576.254c-219.348,-10.352 -360.181,-141.275 -224.864,-282.302c6.557,-6.834 49.474,-46.97 106.187,-80.004c64.949,-37.832 100.306,-49.685 147.707,-62.3c-21.983,12.661 -208.144,97.755 -204.691,211.415c1.689,55.573 51.323,83.474 60.476,91.629c-41.092,-18.599 -60.474,-32.797 -72.937,-49.826c-6.267,-8.563 -18.985,-22.343 -21.816,-49.507c-4.58,-43.948 31.926,-87.035 33.239,-89.121c-4.667,5.096 -93.755,74.752 -58.324,149.958c21.952,46.597 102.27,82.441 179.429,89.591c29.078,2.694 58.399,2.087 87.478,4.782c-2.14,21.65 -2.771,43.431 -4.911,65.081c-0.185,1.868 -24.817,0.706 -26.973,0.604Z" style="fill:url(#_Radial32);fill-rule:nonzero;"/><path id="path12" serif:id="path1" d="M333.255,592.461c-5.437,-2.204 -5.104,-3.076 -4.938,-8.921c0.555,-19.518 13.582,-191.259 16.727,-213.937c2.422,-17.458 9.456,-12.038 33.354,-22.563l7.544,-26.944c-88.8,26.828 -88.942,28.697 -94.975,26.65c-1.028,-0.348 -7.748,-2.628 -5.918,-12.212c0.737,-3.859 57.827,-283.079 63.803,-294.47c0.65,-1.24 1.741,-2.55 3.116,-2.817c2.309,-0.448 246.995,-37.846 257.844,-37.24c5.698,0.319 11.089,2.305 10.877,9.753c-0.138,4.81 -1.641,7.949 -84.823,182.636c75.81,-10.367 81.686,-17.853 85.27,-5.036c1.277,4.567 -6.034,15.805 -6.835,17.036c-73.038,112.272 -223.148,325.629 -266.238,380.471c-8.102,10.312 -13.574,8.094 -14.808,7.594Zm22.574,-286.398c-0.733,3.151 -0.439,3.666 2.095,3.666c1.399,0 33.205,-8.469 62.165,-16.385c-26.579,90.27 -73.064,248.292 -75.452,257.416c-0.82,3.134 -1.129,6.284 -0.686,7c1.455,2.355 4.357,1.366 7.72,-2.631c1.821,-2.164 20.624,-29.815 41.785,-61.447c21.162,-31.632 59.776,-89.281 85.809,-128.109c66.693,-99.47 112.497,-165.336 110.978,-165.288c-12.705,0.405 -55.449,9.318 -92.371,17.5c22.624,-48.694 52.448,-114.291 71.161,-152.242c11.44,-23.203 20.973,-43.003 21.183,-44c0.582,-2.762 -8.457,-2.995 -22.272,-0.574c-6.607,1.158 -17.712,2.957 -24.679,3.998c-2.73,0.407 -6.705,1.031 -11.749,1.841c-20.935,3.34 -61.826,10.026 -92.326,15.176c-5.758,0.973 -9.493,2.315 -10.22,3.674c-3.343,6.246 -35.287,122.857 -44.421,159.405c-9.117,36.477 -25.836,88.597 -28.72,101Z" style="fill:url(#_Linear33);"/><path id="path7" d="M497.872,217.785c36.922,-8.182 79.666,-17.095 92.371,-17.5c1.519,-0.048 -44.285,65.818 -110.978,165.288c-26.033,38.828 -64.647,96.477 -85.809,128.109c-21.161,31.632 -39.964,59.283 -41.785,61.447c-3.363,3.997 -6.265,4.986 -7.72,2.631c-0.443,-0.716 -0.134,-3.866 0.686,-7c2.388,-9.124 48.873,-167.146 75.452,-257.416c-28.96,7.916 -60.766,16.385 -62.165,16.385c-2.534,0 -2.828,-0.515 -2.095,-3.666c2.884,-12.403 19.603,-64.523 28.72,-101c9.134,-36.548 41.078,-153.159 44.421,-159.405c0.727,-1.359 4.462,-2.701 10.22,-3.674c38.429,-6.489 93.353,-15.415 104.075,-17.017c6.967,-1.041 18.072,-2.84 24.679,-3.998c13.815,-2.421 22.854,-2.188 22.272,0.574c-0.21,0.997 -9.743,20.797 -21.183,44c-18.713,37.951 -48.537,103.548 -71.161,152.242Z" style="fill:url(#_Linear34);"/></g></g><defs><linearGradient id="_Linear1" x1="0" y1="0" x2="1" y2="0" gradientUnits="userSpaceOnUse" gradientTransform="matrix(2.55007e-14,416.459,-416.459,2.55007e-14,2072.41,88.4406)"><stop offset="0" style="stop-color:#d34bf7;stop-opacity:1"/><stop offset="0.47" style="stop-color:#f550f4;stop-opacity:1"/><stop offset="1" style="stop-color:#ff52f3;stop-opacity:1"/></linearGradient><linearGradient id="_Linear2" x1="0" y1="0" x2="1" y2="0" gradientUnits="userSpaceOnUse" gradientTransform="matrix(2.55007e-14,416.459,-416.459,2.55007e-14,2186.63,88.4406)"><stop offset="0" style="stop-color:#e6cdfb;stop-opacity:1"/><stop offset="0.5" style="stop-color:#faf0cb;stop-opacity:1"/><stop offset="1" style="stop-color:#f8c5fa;stop-opacity:1"/></linearGradient><linearGradient id="_Linear3" x1="0" y1="0" x2="1" y2="0" gradientUnits="userSpaceOnUse" gradientTransform="matrix(2.55007e-14,416.459,-416.459,2.55007e-14,2072.41,88.4406)"><stop offset="0" style="stop-color:#d34bf7;stop-opacity:1"/><stop offset="0.47" style="stop-color:#f550f4;stop-opacity:1"/><stop offset="1" style="stop-color:#ff52f3;stop-opacity:1"/></linearGradient><linearGradient id="_Linear4" x1="0" y1="0" x2="1" y2="0" gradientUnits="userSpaceOnUse" gradientTransform="matrix(2.55007e-14,416.459,-416.459,2.55007e-14,2186.63,88.4406)"><stop offset="0" style="stop-color:#e6cdfb;stop-opacity:1"/><stop offset="0.5" style="stop-color:#faf0cb;stop-opacity:1"/><stop offset="1" style="stop-color:#f8c5fa;stop-opacity:1"/></linearGradient><linearGradient id="_Linear5" x1="0" y1="0" x2="1" y2="0" gradientUnits="userSpaceOnUse" gradientTransform="matrix(2.55007e-14,416.459,-416.459,2.55007e-14,2072.41,88.4406)"><stop offset="0" style="stop-color:#d34bf7;stop-opacity:1"/><stop offset="0.47" style="stop-color:#f550f4;stop-opacity:1"/><stop offset="1" style="stop-color:#ff52f3;stop-opacity:1"/></linearGradient><linearGradient id="_Linear6" x1="0" y1="0" x2="1" y2="0" gradientUnits="userSpaceOnUse" gradientTransform="matrix(2.55007e-14,416.459,-416.459,2.55007e-14,2186.63,88.4406)"><stop offset="0" style="stop-color:#e6cdfb;stop-opacity:1"/><stop offset="0.5" style="stop-color:#faf0cb;stop-opacity:1"/><stop offset="1" style="stop-color:#f8c5fa;stop-opacity:1"/></linearGradient><linearGradient id="_Linear7" x1="0" y1="0" x2="1" y2="0" gradientUnits="userSpaceOnUse" gradientTransform="matrix(2.55007e-14,416.459,-416.459,2.55007e-14,2072.41,88.4406)"><stop offset="0" style="stop-color:#d34bf7;stop-opacity:1"/><stop offset="0.47" style="stop-color:#f550f4;stop-opacity:1"/><stop offset="1" style="stop-color:#ff52f3;stop-opacity:1"/></linearGradient><linearGradient id="_Linear8" x1="0" y1="0" x2="1" y2="0" gradientUnits="userSpaceOnUse" gradientTransform="matrix(2.55007e-14,416.459,-416.459,2.55007e-14,2186.63,88.4406)"><stop offset="0" style="stop-color:#e6cdfb;stop-opacity:1"/><stop offset="0.5" style="stop-color:#faf0cb;stop-opacity:1"/><stop offset="1" style="stop-color:#f8c5fa;stop-opacity:1"/></linearGradient><linearGradient id="_Linear9" x1="0" y1="0" x2="1" y2="0" gradientUnits="userSpaceOnUse" gradientTransform="matrix(2.55007e-14,416.459,-416.459,2.55007e-14,2072.41,88.4406)"><stop offset="0" style="stop-color:#d34bf7;stop-opacity:1"/><stop offset="0.47" style="stop-color:#f550f4;stop-opacity:1"/><stop offset="1" style="stop-color:#ff52f3;stop-opacity:1"/></linearGradient><linearGradient id="_Linear10" x1="0" y1="0" x2="1" y2="0" gradientUnits="userSpaceOnUse" gradientTransform="matrix(2.55007e-14,416.459,-416.459,2.55007e-14,2186.63,88.4406)"><stop offset="0" style="stop-color:#e6cdfb;stop-opacity:1"/><stop offset="0.5" style="stop-color:#faf0cb;stop-opacity:1"/><stop offset="1" style="stop-color:#f8c5fa;stop-opacity:1"/></linearGradient><linearGradient id="_Linear11" x1="0" y1="0" x2="1" y2="0" gradientUnits="userSpaceOnUse" gradientTransform="matrix(2.55007e-14,416.459,-416.459,2.55007e-14,2072.41,88.4406)"><stop offset="0" style="stop-color:#d34bf7;stop-opacity:1"/><stop offset="0.47" style="stop-color:#f550f4;stop-opacity:1"/><stop offset="1" style="stop-color:#ff52f3;stop-opacity:1"/></linearGradient><linearGradient id="_Linear12" x1="0" y1="0" x2="1" y2="0" gradientUnits="userSpaceOnUse" gradientTransform="matrix(2.55007e-14,416.459,-416.459,2.55007e-14,2186.63,88.4406)"><stop offset="0" style="stop-color:#e6cdfb;stop-opacity:1"/><stop offset="0.5" style="stop-color:#faf0cb;stop-opacity:1"/><stop offset="1" style="stop-color:#f8c5fa;stop-opacity:1"/></linearGradient><linearGradient id="_Linear13" x1="0" y1="0" x2="1" y2="0" gradientUnits="userSpaceOnUse" gradientTransform="matrix(2.55007e-14,416.459,-416.459,2.55007e-14,2072.41,88.4406)"><stop offset="0" style="stop-color:#d34bf7;stop-opacity:1"/><stop offset="0.47" style="stop-color:#f550f4;stop-opacity:1"/><stop offset="1" style="stop-color:#ff52f3;stop-opacity:1"/></linearGradient><linearGradient id="_Linear14" x1="0" y1="0" x2="1" y2="0" gradientUnits="userSpaceOnUse" gradientTransform="matrix(2.55007e-14,416.459,-416.459,2.55007e-14,2186.63,88.4406)"><stop offset="0" style="stop-color:#e6cdfb;stop-opacity:1"/><stop offset="0.5" style="stop-color:#faf0cb;stop-opacity:1"/><stop offset="1" style="stop-color:#f8c5fa;stop-opacity:1"/></linearGradient><linearGradient id="_Linear15" x1="0" y1="0" x2="1" y2="0" gradientUnits="userSpaceOnUse" gradientTransform="matrix(2.55007e-14,416.459,-416.459,2.55007e-14,2072.41,88.4406)"><stop offset="0" style="stop-color:#d34bf7;stop-opacity:1"/><stop offset="0.47" style="stop-color:#f550f4;stop-opacity:1"/><stop offset="1" style="stop-color:#ff52f3;stop-opacity:1"/></linearGradient><linearGradient id="_Linear16" x1="0" y1="0" x2="1" y2="0" gradientUnits="userSpaceOnUse" gradientTransform="matrix(2.55007e-14,416.459,-416.459,2.55007e-14,2186.63,88.4406)"><stop offset="0" style="stop-color:#e6cdfb;stop-opacity:1"/><stop offset="0.5" style="stop-color:#faf0cb;stop-opacity:1"/><stop offset="1" style="stop-color:#f8c5fa;stop-opacity:1"/></linearGradient><linearGradient id="_Linear17" x1="0" y1="0" x2="1" y2="0" gradientUnits="userSpaceOnUse" gradientTransform="matrix(2.55007e-14,416.459,-416.459,2.55007e-14,2072.41,88.4406)"><stop offset="0" style="stop-color:#d34bf7;stop-opacity:1"/><stop offset="0.47" style="stop-color:#f550f4;stop-opacity:1"/><stop offset="1" style="stop-color:#ff52f3;stop-opacity:1"/></linearGradient><linearGradient id="_Linear18" x1="0" y1="0" x2="1" y2="0" gradientUnits="userSpaceOnUse" gradientTransform="matrix(2.55007e-14,416.459,-416.459,2.55007e-14,2186.63,88.4406)"><stop offset="0" style="stop-color:#e6cdfb;stop-opacity:1"/><stop offset="0.5" style="stop-color:#faf0cb;stop-opacity:1"/><stop offset="1" style="stop-color:#f8c5fa;stop-opacity:1"/></linearGradient><linearGradient id="_Linear19" x1="0" y1="0" x2="1" y2="0" gradientUnits="userSpaceOnUse" gradientTransform="matrix(2.55007e-14,416.459,-416.459,2.55007e-14,2072.41,88.4406)"><stop offset="0" style="stop-color:#d34bf7;stop-opacity:1"/><stop offset="0.47" style="stop-color:#f550f4;stop-opacity:1"/><stop offset="1" style="stop-color:#ff52f3;stop-opacity:1"/></linearGradient><linearGradient id="_Linear20" x1="0" y1="0" x2="1" y2="0" gradientUnits="userSpaceOnUse" gradientTransform="matrix(2.55007e-14,416.459,-416.459,2.55007e-14,2186.63,88.4406)"><stop offset="0" style="stop-color:#e6cdfb;stop-opacity:1"/><stop offset="0.5" style="stop-color:#faf0cb;stop-opacity:1"/><stop offset="1" style="stop-color:#f8c5fa;stop-opacity:1"/></linearGradient><linearGradient id="_Linear21" x1="0" y1="0" x2="1" y2="0" gradientUnits="userSpaceOnUse" gradientTransform="matrix(2.55007e-14,416.459,-416.459,2.55007e-14,2072.41,88.4406)"><stop offset="0" style="stop-color:#8c30ea;stop-opacity:1"/><stop offset="0.23" style="stop-color:#a143f1;stop-opacity:1"/><stop offset="0.5" style="stop-color:#a748f3;stop-opacity:1"/><stop offset="1" style="stop-color:#aa5df2;stop-opacity:1"/></linearGradient><linearGradient id="_Linear22" x1="0" y1="0" x2="1" y2="0" gradientUnits="userSpaceOnUse" gradientTransform="matrix(2.55007e-14,416.459,-416.459,2.55007e-14,2072.41,88.4406)"><stop offset="0" style="stop-color:#8c30ea;stop-opacity:1"/><stop offset="0.23" style="stop-color:#a143f1;stop-opacity:1"/><stop offset="0.5" style="stop-color:#a748f3;stop-opacity:1"/><stop offset="1" style="stop-color:#aa5df2;stop-opacity:1"/></linearGradient><linearGradient id="_Linear23" x1="0" y1="0" x2="1" y2="0" gradientUnits="userSpaceOnUse" gradientTransform="matrix(2.55007e-14,416.459,-416.459,2.55007e-14,2072.41,88.4406)"><stop offset="0" style="stop-color:#8c30ea;stop-opacity:1"/><stop offset="0.23" style="stop-color:#a143f1;stop-opacity:1"/><stop offset="0.5" style="stop-color:#a748f3;stop-opacity:1"/><stop offset="1" style="stop-color:#aa5df2;stop-opacity:1"/></linearGradient><linearGradient id="_Linear24" x1="0" y1="0" x2="1" y2="0" gradientUnits="userSpaceOnUse" gradientTransform="matrix(2.55007e-14,416.459,-416.459,2.55007e-14,2072.41,88.4406)"><stop offset="0" style="stop-color:#8c30ea;stop-opacity:1"/><stop offset="0.23" style="stop-color:#a143f1;stop-opacity:1"/><stop offset="0.5" style="stop-color:#a748f3;stop-opacity:1"/><stop offset="1" style="stop-color:#aa5df2;stop-opacity:1"/></linearGradient><linearGradient id="_Linear25" x1="0" y1="0" x2="1" y2="0" gradientUnits="userSpaceOnUse" gradientTransform="matrix(2.55007e-14,416.459,-416.459,2.55007e-14,2072.41,88.4406)"><stop offset="0" style="stop-color:#8c30ea;stop-opacity:1"/><stop offset="0.23" style="stop-color:#a143f1;stop-opacity:1"/><stop offset="0.5" style="stop-color:#a748f3;stop-opacity:1"/><stop offset="1" style="stop-color:#aa5df2;stop-opacity:1"/></linearGradient><linearGradient id="_Linear26" x1="0" y1="0" x2="1" y2="0" gradientUnits="userSpaceOnUse" gradientTransform="matrix(2.55007e-14,416.459,-416.459,2.55007e-14,2072.41,88.4406)"><stop offset="0" style="stop-color:#8c30ea;stop-opacity:1"/><stop offset="0.23" style="stop-color:#a143f1;stop-opacity:1"/><stop offset="0.5" style="stop-color:#a748f3;stop-opacity:1"/><stop offset="1" style="stop-color:#aa5df2;stop-opacity:1"/></linearGradient><linearGradient id="_Linear27" x1="0" y1="0" x2="1" y2="0" gradientUnits="userSpaceOnUse" gradientTransform="matrix(2.55007e-14,416.459,-416.459,2.55007e-14,2072.41,88.4406)"><stop offset="0" style="stop-color:#8c30ea;stop-opacity:1"/><stop offset="0.23" style="stop-color:#a143f1;stop-opacity:1"/><stop offset="0.5" style="stop-color:#a748f3;stop-opacity:1"/><stop offset="1" style="stop-color:#aa5df2;stop-opacity:1"/></linearGradient><linearGradient id="_Linear28" x1="0" y1="0" x2="1" y2="0" gradientUnits="userSpaceOnUse" gradientTransform="matrix(2.55007e-14,416.459,-416.459,2.55007e-14,2072.41,88.4406)"><stop offset="0" style="stop-color:#8c30ea;stop-opacity:1"/><stop offset="0.23" style="stop-color:#a143f1;stop-opacity:1"/><stop offset="0.5" style="stop-color:#a748f3;stop-opacity:1"/><stop offset="1" style="stop-color:#aa5df2;stop-opacity:1"/></linearGradient><linearGradient id="_Linear29" x1="0" y1="0" x2="1" y2="0" gradientUnits="userSpaceOnUse" gradientTransform="matrix(2.55007e-14,416.459,-416.459,2.55007e-14,2072.41,88.4406)"><stop offset="0" style="stop-color:#8c30ea;stop-opacity:1"/><stop offset="0.23" style="stop-color:#a143f1;stop-opacity:1"/><stop offset="0.5" style="stop-color:#a748f3;stop-opacity:1"/><stop offset="1" style="stop-color:#aa5df2;stop-opacity:1"/></linearGradient><linearGradient id="_Linear30" x1="0" y1="0" x2="1" y2="0" gradientUnits="userSpaceOnUse" gradientTransform="matrix(2.55007e-14,416.459,-416.459,2.55007e-14,2072.41,88.4406)"><stop offset="0" style="stop-color:#8c30ea;stop-opacity:1"/><stop offset="0.23" style="stop-color:#a143f1;stop-opacity:1"/><stop offset="0.5" style="stop-color:#a748f3;stop-opacity:1"/><stop offset="1" style="stop-color:#aa5df2;stop-opacity:1"/></linearGradient><linearGradient id="_Linear31" x1="0" y1="0" x2="1" y2="0" gradientUnits="userSpaceOnUse" gradientTransform="matrix(236.191,-6,3.47609,136.837,399.302,370.003)"><stop offset="0" style="stop-color:#f7c388;stop-opacity:1"/><stop offset="1" style="stop-color:#f886d5;stop-opacity:1"/></linearGradient><radialGradient id="_Radial32" cx="0" cy="0" r="1" gradientUnits="userSpaceOnUse" gradientTransform="matrix(280.427,0,0,384.692,309.852,364.176)"><stop offset="0" style="stop-color:#f7e596;stop-opacity:1"/><stop offset="1" style="stop-color:#f7a179;stop-opacity:1"/></radialGradient><linearGradient id="_Linear33" x1="0" y1="0" x2="1" y2="0" gradientUnits="userSpaceOnUse" gradientTransform="matrix(-246.531,593.007,-593.007,-246.531,590.279,-1.13687e-13)"><stop offset="0" style="stop-color:#f0ab62;stop-opacity:1"/><stop offset="0.5" style="stop-color:#f8f3d0;stop-opacity:1"/><stop offset="1" style="stop-color:#fff;stop-opacity:1"/></linearGradient><linearGradient id="_Linear34" x1="0" y1="0" x2="1" y2="0" gradientUnits="userSpaceOnUse" gradientTransform="matrix(118.096,558,-558,118.096,399.302,-17.9967)"><stop offset="0" style="stop-color:#6529e6;stop-opacity:1"/><stop offset="0.5" style="stop-color:#e85ae6;stop-opacity:1"/><stop offset="1" style="stop-color:#ffee60;stop-opacity:1"/></linearGradient></defs></svg>